<?xml version="1.0" encoding="UTF-8" standalone="no"?><!DOCTYPE svg PUBLIC "-//W3C//DTD SVG 1.1//EN" "http://www.w3.org/Graphics/SVG/1.1/DTD/svg11.dtd"><svg width="100%" height="100%" viewBox="0 0 24 24" version="1.1" xmlns="http://www.w3.org/2000/svg" xmlns:xlink="http://www.w3.org/1999/xlink" xml:space="preserve" xmlns:affinity="https://www.affinity.studio/" style="fill-rule:evenodd;clip-rule:evenodd;stroke-linecap:round;stroke-linejoin:round;"><path d="M12,6L12,22" style="fill:none;fill-rule:nonzero;stroke:#000;stroke-width:2px;"/><path d="M20.001,20C21.098,19.999 22,19.097 22,18L22,6C22,4.903 21.098,4.001 20.001,4L16,4.002C14.428,4.002 12.944,4.743 12,6C11.056,4.742 9.573,4 8,4L4,4C2.903,4 2,4.903 2,6L2,18C2,19.097 2.902,19.999 3.999,20L8,20C9.573,20 11.056,20.742 12,22C12.944,20.742 14.427,20 16,20L20.001,20Z" style="fill:none;fill-rule:nonzero;stroke:#000;stroke-width:2px;"/></svg>